<svg xmlns="http://www.w3.org/2000/svg" width="16.633" height="16.633" viewBox="0 0 16.633 16.633"><defs><style>.a{fill:#fff;fill-rule:evenodd;}</style></defs><path class="a" d="M10.034,1.805a8.316,8.316,0,1,0,8.316,8.316A8.316,8.316,0,0,0,10.034,1.805ZM5.127,15.05a6.959,6.959,0,0,1,9.8-.014A6.851,6.851,0,0,1,5.127,15.05ZM7.49,9.163a2.544,2.544,0,0,1,5.088.025A2.544,2.544,0,0,1,7.49,9.163Zm8.3,4.87A8.73,8.73,0,0,0,12.552,12.1a3.887,3.887,0,0,0,.109-5.707,3.84,3.84,0,1,0-5.177,5.672c-.564.275-1.15.515-1.688.836s-1.03.725-1.542,1.093a6.926,6.926,0,0,1,.963-8.957,7.026,7.026,0,0,1,9.6-.029A6.934,6.934,0,0,1,15.787,14.033Z" transform="translate(-1.718 -1.805)"/></svg>