<svg xmlns="http://www.w3.org/2000/svg" width="17.361" height="16.799" viewBox="0 0 17.361 16.799"><defs><style>.a{fill:#3b86ff;}</style></defs><g transform="translate(-116.3 -135.844)"><path class="a" d="M204.788,431.388a6.1,6.1,0,0,1-2.38-.988l-1.608,1.608a8.359,8.359,0,0,0,3.988,1.654Z" transform="translate(-80.618 -281.024)"/><path class="a" d="M130.2,344a8.406,8.406,0,0,0,1.654,3.988l1.608-1.608a6.142,6.142,0,0,1-.988-2.38Z" transform="translate(-13.261 -198.593)"/><path class="a" d="M426.266,344h-2.279a6.1,6.1,0,0,1-.988,2.38l1.608,1.608A8.413,8.413,0,0,0,426.266,344Z" transform="translate(-292.61 -198.593)"/><path class="a" d="M117.426,142.875h5.623v-2.251h-2.734a6.187,6.187,0,0,1,11.067,2.531h2.279a8.437,8.437,0,0,0-15.11-3.937v-3.092H116.3v5.623A1.124,1.124,0,0,0,117.426,142.875Z" transform="translate(0)"/><path class="a" d="M336.6,431.483v2.279a8.4,8.4,0,0,0,3.988-1.654L338.98,430.5A6.308,6.308,0,0,1,336.6,431.483Z" transform="translate(-210.179 -281.12)"/></g></svg>