<svg xmlns="http://www.w3.org/2000/svg" width="31.353" height="31" viewBox="0 0 31.353 31"><defs><style>.a{fill:#9a9a9a;}</style></defs><path class="a" d="M19.235,289.405,3.392,305.249A8.88,8.88,0,0,0,15.95,317.807L30.3,303.456a6.322,6.322,0,0,0-8.941-8.94L6.713,309.163a3.764,3.764,0,1,0,5.323,5.323l11.317-11.317-1.705-1.705L10.33,312.781a1.352,1.352,0,0,1-1.912-1.912l14.647-14.647a3.91,3.91,0,1,1,5.53,5.53L14.245,316.1A6.468,6.468,0,0,1,5.1,306.954L20.941,291.11Z" transform="translate(-0.794 -289.405)"/></svg>