<svg xmlns="http://www.w3.org/2000/svg" width="19.016" height="19.016" viewBox="0 0 19.016 19.016"><defs><style>.a{fill:#9597ac;fill-rule:evenodd;}</style></defs><g transform="translate(-187.821 -163.822)"><path class="a" d="M197.358,163.823q3.893,0,7.786,0c1.153,0,1.689.53,1.69,1.674q0,7.845,0,15.69a1.458,1.458,0,0,1-1.659,1.647q-7.845.005-15.69,0a1.456,1.456,0,0,1-1.662-1.643q-.006-7.845,0-15.69c0-1.147.535-1.675,1.689-1.677Q193.436,163.817,197.358,163.823ZM189.3,181.357H205.35V165.314H189.3Z" transform="translate(0 0)"/><path class="a" d="M218.677,195.389q0,2.751,0,5.5c0,.856-.215,1.068-1.07,1.069-1.288,0-2.576.005-3.864,0-.691,0-.92-.225-.92-.905q-.006-5.678,0-11.357c0-.656.229-.886.875-.891q2.02-.012,4.039,0c.7,0,.936.247.938.963C218.681,191.642,218.677,193.515,218.677,195.389Zm-1.521,5.1V190.3H214.3v10.186Z" transform="translate(-22.071 -22.052)"/><path class="a" d="M280.972,191.722c0,.683.007,1.366,0,2.049-.009.61-.247.878-.838.885q-2.078.023-4.156,0c-.584-.006-.85-.285-.856-.881q-.018-2.049,0-4.1c.006-.625.267-.866.91-.87q2.019-.011,4.039,0c.678,0,.894.23.9.925C280.977,190.395,280.972,191.058,280.972,191.722Zm-4.341,1.423h2.851v-2.861h-2.851Z" transform="translate(-77.064 -22.053)"/><path class="a" d="M280.976,254.079c0,.683.008,1.366,0,2.049-.01.606-.247.844-.86.848q-2.049.013-4.1,0c-.633,0-.887-.253-.892-.889q-.016-2.02,0-4.039c0-.658.27-.918.934-.923q1.99-.014,3.981,0c.7,0,.931.252.937.964C280.981,252.752,280.976,253.416,280.976,254.079Zm-1.479-1.43h-2.861v2.841H279.5Z" transform="translate(-77.069 -77.07)"/></g></svg>