<svg xmlns="http://www.w3.org/2000/svg" width="13.138" height="13.34" viewBox="0 0 13.138 13.34"><defs><style>.a{fill:#302369;fill-rule:evenodd;}</style></defs><g transform="translate(-272.071 -340.562)"><path class="a" d="M278.61,353.9q-2.532,0-5.063,0a1.285,1.285,0,0,1-1.47-1.458c0-2.1,0-4.208-.006-6.311a.734.734,0,0,1,.293-.641c.492-.393.976-.8,1.442-1.22a.692.692,0,0,0,.208-.443c.022-.7.006-1.4.011-2.1a1.025,1.025,0,0,1,1.166-1.158q3.476-.005,6.953,0a1.031,1.031,0,0,1,1.179,1.181c0,.689.008,1.379,0,2.068a.608.608,0,0,0,.244.548c.457.361.887.754,1.341,1.119a.738.738,0,0,1,.3.637c-.01,2.127,0,4.255-.006,6.382a1.262,1.262,0,0,1-1.387,1.4C282.081,353.9,280.345,353.9,278.61,353.9Zm-1.142-4c-.129.1-.244.18-.356.266l-2.519,1.93c-.211.161-.445.373-.674.079-.24-.31.028-.487.253-.656.389-.293.775-.591,1.162-.887l1.519-1.167-4.025-2.847a.786.786,0,0,0-.036.14c0,1.95,0,3.9,0,5.849,0,.393.214.582.648.582q5.189,0,10.378,0c.481,0,.669-.194.67-.672q0-2.8,0-5.6a1.945,1.945,0,0,0-.036-.251l-3.947,2.793c.131.106.228.19.33.268q1.118.856,2.237,1.711c.047.036.092.076.141.109.223.151.421.34.224.61-.22.3-.456.112-.671-.053q-1.019-.781-2.04-1.558c-.274-.208-.552-.571-.829-.571-.295,0-.59.344-.885.538a.256.256,0,0,0-.03.02.45.45,0,0,1-.641-.007C278.061,350.306,277.765,350.108,277.468,349.9Zm1.207-.022c1.276-.9,2.528-1.786,3.774-2.678a.412.412,0,0,0,.156-.286c.009-1.747.006-3.494.007-5.241a.34.34,0,0,0-.391-.389q-3.548,0-7.1,0c-.271,0-.387.13-.387.394,0,1.735,0,3.471.008,5.206a.452.452,0,0,0,.16.319C276.151,348.092,277.4,348.974,278.675,349.874Zm-4.681-3.317v-1.508l-.974.829Zm9.351-1.413v1.427l.94-.667c-.283-.241-.534-.456-.786-.668A1.375,1.375,0,0,0,283.345,345.144Z"/><path class="a" d="M326.012,365.654a1.489,1.489,0,1,1-1.284-2.628,1.464,1.464,0,0,1,1.81,1.079,6.7,6.7,0,0,1,.065.956c.015.238.152.412.38.367a.571.571,0,0,0,.388-.324,2.437,2.437,0,0,0-1.225-2.658,2.294,2.294,0,0,0-2.5.292,2.269,2.269,0,0,0,1.346,3.994c.106.006.246-.016.31.042a.644.644,0,0,1,.235.379c.007.232-.19.292-.4.3a2.949,2.949,0,0,1-2.8-1.9,2.843,2.843,0,0,1,.673-3.186,2.805,2.805,0,0,1,3.153-.681,2.879,2.879,0,0,1,1.937,2.66c.018.224.01.451.006.677a1.131,1.131,0,0,1-.7,1.1,1.1,1.1,0,0,1-1.282-.35Zm-.9-.425a.758.758,0,1,0-.763-.773A.767.767,0,0,0,325.108,365.229Z" transform="translate(-46.476 -19.417)"/></g></svg>