<svg xmlns="http://www.w3.org/2000/svg" width="27" height="24.923" viewBox="0 0 27 24.923"><g transform="translate(-1 -2)"><path d="M24.164,2H4.836A3.842,3.842,0,0,0,1,5.835v20.05a1.038,1.038,0,0,0,.6.94,1.027,1.027,0,0,0,.44.1,1.038,1.038,0,0,0,.665-.24l5.942-4.952H24.164A3.842,3.842,0,0,0,28,17.9V5.835A3.842,3.842,0,0,0,24.164,2Zm1.759,15.9a1.765,1.765,0,0,1-1.759,1.758H8.269a1.038,1.038,0,0,0-.665.24L3.077,23.667V5.835A1.765,1.765,0,0,1,4.836,4.077H24.164a1.765,1.765,0,0,1,1.759,1.758Z" transform="translate(0)"/><path d="M20.5,8H8.038a1.038,1.038,0,1,0,0,2.077H20.5A1.038,1.038,0,1,0,20.5,8Z" transform="translate(0.231 0.231)"/><path d="M14.269,13H8.038a1.038,1.038,0,1,0,0,2.077h6.231a1.038,1.038,0,1,0,0-2.077Z" transform="translate(0.231 0.423)"/></g></svg>