<svg xmlns="http://www.w3.org/2000/svg" width="23.514" height="23.537" viewBox="0 0 23.514 23.537"><defs><style>.a{fill:#858585;}</style></defs><g transform="translate(-15.3 -28.8)"><path class="a" d="M34.179,107.806a1.665,1.665,0,0,1-1.685,1.66H19.165a1.665,1.665,0,0,1-1.685-1.66V94.427a1.681,1.681,0,0,1,1.685-1.66h6.813l2.155-2.155H19.165A3.844,3.844,0,0,0,15.3,94.427v13.379a3.849,3.849,0,0,0,3.865,3.84H32.519a3.849,3.849,0,0,0,3.865-3.84V98.813l-2.155,2.155v6.838Z" transform="translate(0 -59.31)"/><path class="a" d="M174.523,32.318l-3.023-3a1.751,1.751,0,0,0-1.214-.52h0a1.684,1.684,0,0,0-1.214.5L157.923,40.444a1.714,1.714,0,0,0-.5,1.115l-.2,3.2a1.77,1.77,0,0,0,.5,1.338,1.726,1.726,0,0,0,1.214.5h.1l3.221-.2a1.713,1.713,0,0,0,1.115-.5L174.5,34.771a1.726,1.726,0,0,0,.5-1.214A1.623,1.623,0,0,0,174.523,32.318Zm-7.111,1.709,2.4,2.4-5.574,5.55-2.4-2.4ZM161.962,44.26l-2.552.149.149-2.552.719-.718,2.4,2.4Zm9.365-9.39-2.378-2.378,1.338-1.338,2.4,2.4Z" transform="translate(-136.182)"/></g></svg>